# AST/ASF file generated using VICON BodyLanguage
# -----------------------------------------------
:version 1.10
:name VICON
:units
  mass 1.0
  length 0.45
  angle deg
:documentation
   .ast/.asf automatically generated from VICON data using
   VICON BodyBuilder and BodyLanguage model FoxedUp or BRILLIANT.MOD
:root
   order TX TY TZ RX RY RZ
   axis XYZ
   position 0 0 0  
   orientation 0 0 0 
:bonedata
  begin
     id 1 
     name lhipjoint
     direction 0.547975 -0.797114 0.253638 
     length 2.36201 
     axis 0 0 0  XYZ
  end
  begin
     id 2 
     name lfemur
     direction 0.34202 -0.939693 0  
     length 7.69075  
     axis 0 0 20  XYZ
    dof rx ry rz
    limits (-160.0 20.0)
           (-70.0 70.0)
           (-60.0 70.0)
  end
  begin
     id 3 
     name ltibia
     direction 0.34202 -0.939693 0   
     length 7.91399   
     axis 0 0 20   XYZ
    dof rx
    limits (-10.0 170.0)
  end
  begin
     id 4 
     name lfoot
     direction 0.0705293 -0.193778 0.978507   
     length 2.13618   
     axis -90 7.62852e-016 20   XYZ
    dof rx rz
    limits (-45.0 90.0)
           (-70.0 20.0)
  end
  begin
     id 5 
     name ltoes
     direction 1.53592e-011 -4.21925e-011 1   
     length 1.07518   
     axis -90 7.62852e-016 20   XYZ
    dof rx
    limits (-90.0 20.0)
  end
  begin
     id 6 
     name rhipjoint
     direction -0.57 -0.782963 0.249136   
     length 2.4047  
     axis 0 0 0  XYZ 
  end
  begin
     id 7 
     name rfemur
     direction -0.34202 -0.939693 0   
     length 7.51486   
     axis 0 0 -20   XYZ
    dof rx ry rz
    limits (-160.0 20.0)
           (-70.0 70.0)
           (-70.0 60.0)
  end
  begin
     id 8 
     name rtibia
     direction -0.34202 -0.939693 0   
     length 8.08317   
     axis 0 0 -20   XYZ
    dof rx
    limits (-10.0 170.0)
 end
 begin
     id 9 
     name rfoot
     direction -0.104954 -0.281256 0.953876   
     length 2.30343  
     axis -90 -7.62852e-016 -20   XYZ
    dof rx rz
    limits (-45.0 90.0)
           (-20.0 70.0)
  end
  begin
     id 10 
     name rtoes
     direction -1.53556e-011 -4.21922e-011 1   
     length 1.14803   
     axis -90 -7.62852e-016 -20   XYZ
    dof rx
    limits (-90.0 20.0)
  end
  begin
     id 11 
     name lowerback
     direction -0.0152855 0.99353 -0.11254   
     length 2.05311   
     axis 0 0 0   XYZ
    dof rx ry rz
    limits (-20.0 45.0)
           (-30.0 30.0)
           (-30.0 30.0)
  end
  begin
     id 12 
     name upperback
     direction -0.00157509 0.999443 -0.033332   
     length 2.06353   
     axis 0 0 0   XYZ
    dof rx ry rz
    limits (-20.0 45.0)
           (-30.0 30.0)
           (-30.0 30.0)
  end
  begin
     id 13 
     name thorax
     direction 0.00577788 0.999804 0.0189484   
     length 2.08472   
     axis 0 0 0   XYZ
    dof rx ry rz
    limits (-20.0 45.0)
           (-30.0 30.0)
           (-30.0 30.0)
  end
  begin
     id 14 
     name lowerneck
     direction -1.09301e-005 0.994719 0.10264   
     length 1.76249   
     axis 0 0 0   XYZ
    dof rx ry rz
    limits (-20.0 45.0)
           (-30.0 30.0)
           (-30.0 30.0)
  end
  begin
     id 15 
     name upperneck
     direction 0.0495018 0.988526 -0.142706   
     length 1.77897   
     axis 0 0 0   XYZ
    dof rx ry rz
    limits (-20.0 45.0)
           (-30.0 30.0)
           (-30.0 30.0)
  end
  begin
     id 16
     name head
     direction 0.0142736 0.998114 -0.0597101  
     length 1.78934  
     axis 0 0 0   XYZ
    dof rx ry rz
    limits (-20.0 45.0)
           (-30.0 30.0)
           (-30.0 30.0)
  end
  begin
     id 17 
     name lclavicle
     direction 0.918111 0.396107 -0.0130883  
     length 3.37276  
     axis 0 0 0   XYZ
    dof ry rz
    limits (-20.0 10.0)
           (0.0 20.0)
  end
  begin
     id 18 
     name lhumerus
     direction 1 -4.48975e-011 -3.26108e-027   
     length 5.34298   
     axis 180 -30 -90   XYZ
    dof rx ry rz
    limits (-60.0 90.0)
           (-90.0 90.0)
           (-90.0 90.0)
  end
  begin
     id 19
     name lradius
     direction 1 -4.48964e-011 -8.84413e-028   
     length 3.67262   
     axis 180 -30 -90   XYZ
    dof rx
    limits (-10.0 170.0)
  end
  begin
     id 20
     name lwrist
     direction 1 -4.48991e-011 -1.24264e-027   
     length 1.83631   
     axis -2.17013e-015 90 90   XYZ
    dof ry
    limits (-180.0 0.0)
 end
  begin
     id 21 
     name lhand
     direction 1 -4.48855e-011 -2.48528e-027   
     length 0.599298   
     axis 1.58582e-015 90 90   XYZ
    dof rx rz
    limits (-90.0 90.0)
           (-45.0 45.0)
  end
  begin
     id 22 
     name lfingers
     direction 1 -4.48811e-011 -4.97056e-027   
     length 0.48317   
     axis 3.17164e-015 90 90   XYZ
    dof rx
    limits (0.0 90.0)
  end
  begin
     id 23
     name lthumb
     direction 0.707107 -6.34882e-011 0.707107   
     length 0.693738   
     axis -90 45 2.85299e-015   XYZ
    dof rx rz
    limits (-45.0 45.0)
           (-45.0 45.0)
  end
  begin
     id 24 
     name rclavicle
     direction -0.920511 0.384752 -0.0680135   
     length 3.43787  
     axis 0 0 0   XYZ 
    dof ry rz
    limits (-10.0 20.0)
           (-20.0 0.0)
  end
  begin
     id 25 
     name rhumerus
     direction -0.999976 -0.00330524 0.00603274  
     length 5.5498   
     axis 180 30 90   XYZ
    dof rx ry rz
    limits (-90.0 60.0)
           (-90.0 90.0)
           (-90.0 90.0)
  end
  begin
     id 26 
     name rradius
     direction -1 -4.48967e-011 8.62438e-027   
     length 3.69401   
     axis 180 30 90   XYZ
    dof rx
    limits (-10.0 170.0)
  end
  begin
     id 27 
     name rwrist
     direction -1 -4.4897e-011 9.54866e-027   
     length 1.84701   
     axis -7.69462e-015 -90 -90   XYZ
    dof ry
    limits (-180.0 0.0)
  end
  begin
     id 28
     name rhand
     direction -1 -4.48982e-011 1.90973e-026   
     length 0.638113   
     axis -1.21857e-014 -90 -90   XYZ
    dof rx rz
    limits (-90.0 90.0)
           (-45.0 45.0)
  end
  begin
     id 29
     name rfingers
     direction -1 -4.48936e-011 3.81946e-026   
     length 0.514463   
     axis -2.43714e-014 -90 -90   XYZ
    dof rx
    limits (0.0 90.0)
  end
  begin
     id 30
     name rthumb
     direction -0.707107 -6.34942e-011 0.707107   
     length 0.738669   
     axis -90 -45 -2.85299e-015   XYZ
    dof rx rz
    limits (-45.0 45.0)
           (-45.0 45.0)
  end
:hierarchy
  begin
    root lhipjoint rhipjoint lowerback
    lhipjoint lfemur
    lfemur ltibia
    ltibia lfoot
    lfoot ltoes
    rhipjoint rfemur
    rfemur rtibia
    rtibia rfoot
    rfoot rtoes
    lowerback upperback
    upperback thorax
    thorax lowerneck lclavicle rclavicle
    lowerneck upperneck
    upperneck head
    lclavicle lhumerus
    lhumerus lradius
    lradius lwrist
    lwrist lhand lthumb
    lhand lfingers
    rclavicle rhumerus
    rhumerus rradius
    rradius rwrist
    rwrist rhand rthumb
    rhand rfingers
  end

#!OML:ASF F:\twosubjects\two\Thursday\Session 1\Rory.ASF
:FULLY-SPECIFIED
:DEGREES
77
root 11.9825 16.8778 17.2561 -162.297 -4.18719 -173.043
lowerback 27.2677 3.72849 -9.14627
upperback 12.4351 -1.0786 -3.86602
thorax -1.19321 -2.11734 1.28393
lowerneck -8.344 -2.80797 -7.48875
upperneck 26.2874 -7.17637 9.62235
head 10.3244 -3.55169 3.79827
rclavicle 9.22361e-014 6.99722e-014
rhumerus 0.0619428 -29.8884 -56.5734
rradius 80.9953
rwrist -8.08954
rhand -38.2832 27.829
rfingers 7.12502
rthumb -11.3124 -1.84591
lclavicle 9.22361e-014 6.99722e-014
lhumerus 12.746 -25.6865 50.727
lradius 76.6251
lwrist -9.76069
lhand -7.82206 26.8555
lfingers 7.12502
lthumb 18.08 56.0352
rfemur -35.4746 5.6567 10.9402
rtibia 79.3939
rfoot -10.2116 -4.40877
rtoes -9.4706
lfemur -63.8728 14.2904 -20.4886
ltibia 58.8666
lfoot -10.0512 -3.72857
ltoes 14.0003
78
root 11.9815 16.8149 17.2394 -162.156 -4.2279 -172.982
lowerback 27.1967 3.81666 -9.2955
upperback 12.5828 -1.02874 -3.8576
thorax -0.994235 -2.12654 1.3551
lowerneck -8.55641 -2.851 -7.21091
upperneck 26.1097 -7.16915 9.51258
head 10.2877 -3.51243 3.70574
rclavicle 3.81667e-014 7.95139e-014
rhumerus -0.0297054 -30.4327 -56.485
rradius 81.2513
rwrist -8.35833
rhand -38.6434 28.1321
rfingers 7.12502
rthumb -11.6598 -1.52343
lclavicle 3.81667e-014 7.95139e-014
lhumerus 13.3676 -25.527 49.9389
lradius 77.1509
lwrist -9.91476
lhand -7.61433 27.4389
lfingers 7.12502
lthumb 18.2799 56.6
rfemur -35.4024 5.58701 10.9003
rtibia 79.8045
rfoot -9.22502 -3.89282
rtoes -7.97372
lfemur -64.3772 14.3579 -20.5038
ltibia 59.5266
lfoot -10.3324 -3.86508
ltoes 12.9163
79
root 11.9803 16.7608 17.2181 -161.94 -3.95361 -173.054
lowerback 26.8699 4.01656 -9.69653
upperback 12.7286 -0.86784 -3.90784
thorax -0.683269 -2.09673 1.4677
lowerneck -8.59813 -2.92724 -7.10747
upperneck 25.7151 -7.16046 9.47838
head 10.1474 -3.48315 3.67116
rclavicle 6.99722e-014 7.31528e-014
rhumerus -0.115869 -31.0331 -56.5029
rradius 81.5387
rwrist -8.61744
rhand -38.8602 28.7126
rfingers 7.12502
rthumb -11.8689 -0.930978
lclavicle 6.99722e-014 7.31528e-014
lhumerus 13.7392 -25.2785 49.3246
lradius 78.0079
lwrist -9.94499
lhand -6.77791 27.6983
lfingers 7.12502
lthumb 19.0844 56.782
rfemur -35.4609 5.788 10.5761
rtibia 80.1761
rfoot -8.21594 -3.15853
rtoes -5.93402
lfemur -64.8479 14.6452 -20.7467
ltibia 60.1433
lfoot -10.6957 -4.01559
ltoes 14.5616
80
root 11.9768 16.7295 17.207 -161.889 -3.78263 -173.166
lowerback 26.8963 4.17027 -9.99273
upperback 12.7716 -0.782017 -3.96001
thorax -0.649169 -2.08147 1.54998
lowerneck -8.40564 -2.97008 -7.27729
upperneck 25.4133 -7.17988 9.65819
head 10.0153 -3.48906 3.76228
rclavicle 1.11319e-013 1.06549e-013
rhumerus -0.427486 -31.4885 -56.4008
rradius 81.9576
rwrist -9.15756
rhand -39.0322 28.592
rfingers 7.12502
rthumb -12.0347 -1.04195
lclavicle 1.11319e-013 1.06549e-013
lhumerus 12.6064 -25.2614 48.8099
lradius 80.2131
lwrist -9.90261
lhand -5.69063 28.1292
lfingers 7.12502
lthumb 20.1297 57.1063
rfemur -35.2998 5.92827 10.2505
rtibia 80.4008
rfoot -7.38295 -2.26225
rtoes -5.95704
lfemur -65.1866 14.8244 -20.9501
ltibia 60.7736
lfoot -11.0343 -4.22903
ltoes 17.0286
81
root 11.9729 16.6935 17.2005 -161.889 -3.85519 -173.041
lowerback 27.1396 4.14133 -9.84526
upperback 12.6721 -0.814305 -4.04558
thorax -0.877106 -2.06998 1.39061
lowerneck -7.80013 -2.96651 -7.29741
upperneck 25.07 -7.21295 9.82297
head 9.78386 -3.51253 3.8249
rclavicle -3.18055e-014 -2.38542e-014
rhumerus -1.01541 -31.7339 -56.2336
rradius 82.4778
rwrist -9.8872
rhand -38.9177 28.0677
rfingers 7.12502
rthumb -11.9242 -1.57275
lclavicle -3.18055e-014 -2.38542e-014
lhumerus 12.6689 -25.7282 49.6576
lradius 79.9911
lwrist -11.2389
lhand -5.5367 28.0666
lfingers 7.12502
lthumb 20.2777 57.0281
rfemur -35.0635 5.91086 10.2951
rtibia 80.5634
rfoot -6.44475 -1.46107
rtoes -7.44614
lfemur -65.5427 14.8354 -20.785
ltibia 61.4699
lfoot -11.401 -4.48186
ltoes 16.2261
82
root 11.969 16.6373 17.1907 -161.748 -4.10119 -172.893
lowerback 27.2448 3.96388 -9.50491
upperback 12.5666 -0.945107 -4.14471
thorax -1.0438 -2.09118 1.13464
lowerneck -7.42368 -2.95673 -7.19823
upperneck 24.9445 -7.22142 9.77391
head 9.66152 -3.52758 3.79311
rclavicle 6.36111e-014 8.42847e-014
rhumerus -1.55712 -31.938 -56.0762
rradius 82.8983
rwrist -10.3656
rhand -38.6136 28.3563
rfingers 7.12502
rthumb -11.631 -1.30088
lclavicle 6.36111e-014 8.42847e-014
lhumerus 14.4715 -25.8718 46.8618
lradius 80.1363
lwrist -9.3825
lhand -4.94511 27.8211
lfingers 7.12502
lthumb 20.8461 56.7212
rfemur -34.8679 5.76491 10.4662
rtibia 80.704
rfoot -5.51856 -0.713845
rtoes -8.55827
lfemur -66.2053 14.7088 -20.619
ltibia 62.2664
lfoot -11.7009 -4.6373
ltoes 13.1427
83
root 11.9683 16.5721 17.1843 -161.601 -4.34679 -173.093
lowerback 27.2683 3.87929 -9.52144
upperback 12.6513 -1.08455 -4.21514
thorax -0.949459 -2.17177 1.10136
lowerneck -7.69922 -3.00441 -7.16639
upperneck 25.1111 -7.28415 9.73231
head 9.77845 -3.54463 3.76395
rclavicle -3.18055e-015 3.02153e-014
rhumerus -1.74199 -32.337 -55.9729
rradius 83.2457
rwrist -10.5528
rhand -38.4504 28.4084
rfingers 7.12502
rthumb -11.4736 -1.25761
lclavicle -3.18055e-015 3.02153e-014
lhumerus 15.245 -25.8045 46.2889
lradius 80.5471
lwrist -9.67441
lhand -3.17967 29.4858
lfingers 7.12502
lthumb 22.5415 58.19
rfemur -34.6738 5.52272 10.2714
rtibia 80.8929
rfoot -4.9054 0.123938
rtoes -10.7701
lfemur -66.8139 14.4033 -20.7963
ltibia 63.0409
lfoot -12.0065 -4.70047
ltoes 12.3411
84
root 11.9714 16.5111 17.1818 -161.662 -4.4962 -173.329
lowerback 27.2948 3.93714 -9.68562
upperback 12.9129 -1.13047 -4.23618
thorax -0.65986 -2.25182 1.17027
lowerneck -8.14135 -3.07876 -7.12817
upperneck 25.2621 -7.35601 9.69129
head 9.92371 -3.55466 3.73013
rclavicle -6.36111e-014 -2.06736e-014
rhumerus -1.85366 -32.7663 -55.8709
rradius 83.7734
rwrist -10.7962
rhand -38.6574 27.2355
rfingers 7.12502
rthumb -11.6733 -2.41929
lclavicle -6.36111e-014 -2.06736e-014
lhumerus 15.971 -25.6676 45.6421
lradius 81.24
lwrist -10.1515
lhand -1.64367 31.9972
lfingers 7.12502
lthumb 24.0151 60.5149
rfemur -34.3276 5.33122 10.0279
rtibia 81.1268
rfoot -4.54873 0.967146
rtoes -11.4543
lfemur -67.0801 14.1832 -20.9576
ltibia 63.7259
lfoot -12.3765 -4.84747
ltoes 12.7539
85
root 11.9735 16.4708 17.175 -161.682 -4.51998 -173.544
lowerback 28.4144 3.8579 -9.72575
upperback 12.4495 -1.3989 -4.49994
thorax -1.6853 -2.3041 1.01762
lowerneck -8.03544 -2.96493 -7.18892
upperneck 25.6092 -7.33601 9.81147
head 10.0317 -3.56045 3.79181
rclavicle -9.54166e-015 -3.02153e-014
rhumerus -2.88204 -32.5104 -55.6253
rradius 84.4164
rwrist -11.063
rhand -39.0683 26.3002
rfingers 7.12502
rthumb -12.0695 -3.33171
lclavicle -9.54166e-015 -3.02153e-014
lhumerus 15.3993 -26.144 44.8904
lradius 82.3744
lwrist -10.4129
lhand -1.9152 31.7607
lfingers 7.12502
lthumb 23.7547 60.3125
rfemur -33.9775 5.09917 9.76888
rtibia 81.2816
rfoot -4.26462 2.00264
rtoes -8.05657
lfemur -67.3915 14.2187 -21.2663
ltibia 64.328
lfoot -12.6448 -4.98863
ltoes 12.1325
86
root 11.9797 16.4183 17.1684 -161.552 -4.50315 -173.753
lowerback 27.5814 4.03225 -10.1574
upperback 12.9081 -1.21964 -4.37304
thorax -0.780738 -2.32197 1.31027
lowerneck -8.16907 -3.15323 -7.4771
upperneck 25.1446 -7.40564 9.88824
head 9.91248 -3.58132 3.85443
rclavicle -1.59028e-014 -2.22639e-014
rhumerus -2.63392 -33.0768 -55.4579
rradius 84.7679
rwrist -11.1335
rhand -39.5685 26.0826
rfingers 7.12502
rthumb -12.5518 -3.52034
lclavicle -1.59028e-014 -2.22639e-014
lhumerus 14.1926 -26.0274 44.6606
lradius 84.8642
lwrist -10.6148
lhand -2.03436 30.894
lfingers 7.12502
lthumb 23.6404 59.4605
rfemur -33.8507 4.83566 9.50654
rtibia 81.4761
rfoot -4.15189 2.84992
rtoes -5.43237
lfemur -67.903 14.2935 -21.66
ltibia 64.942
lfoot -12.9368 -5.03994
ltoes 10.9739
87
root 11.9898 16.3381 17.1703 -161.4 -4.82749 -173.646
lowerback 27.6948 3.9018 -10.0672
upperback 12.78 -1.32066 -4.26042
thorax -0.967128 -2.3366 1.42044
lowerneck -7.95223 -3.19103 -7.63215
upperneck 24.9866 -7.43384 9.94486
head 9.82442 -3.60878 3.89963
rclavicle -1.59028e-014 2.70347e-014
rhumerus -3.21015 -33.1136 -54.9282
rradius 85.2768
rwrist -11.4847
rhand -39.6125 26.0174
rfingers 7.12502
rthumb -12.5942 -3.58297
lclavicle -1.59028e-014 2.70347e-014
lhumerus 13.8567 -26.5243 46.3171
lradius 84.9786
lwrist -12.4709
lhand -1.60231 30.9473
lfingers 7.12502
lthumb 24.0548 59.4597
rfemur -33.7981 4.49585 9.78528
rtibia 81.7211
rfoot -4.2204 3.19065
rtoes -7.02258
lfemur -68.6303 14.0458 -21.5115
ltibia 65.6866
lfoot -13.2436 -5.07614
ltoes 9.74924
88
root 11.997 16.256 17.175 -161.255 -5.33784 -173.351
lowerback 27.5438 3.68944 -9.62055
upperback 12.8325 -1.4078 -4.12302
thorax -0.839398 -2.3557 1.34256
lowerneck -7.69667 -3.26823 -7.67088
upperneck 24.6254 -7.51114 10.0798
head 9.66133 -3.63635 3.94478
rclavicle -1.04958e-013 -9.70069e-014
rhumerus -3.63258 -33.3568 -54.5339
rradius 85.7567
rwrist -11.7556
rhand -39.3846 26.2255
rfingers 7.12502
rthumb -12.3745 -3.3883
lclavicle -1.04958e-013 -9.70069e-014
lhumerus 16.5086 -26.2781 43.2228
lradius 85.1788
lwrist -10.3066
lhand -0.441822 31.6519
lfingers 7.12502
lthumb 25.1671 60.0127
rfemur -33.6495 4.23231 10.3207
rtibia 81.9278
rfoot -4.38525 3.57933
rtoes -7.98224
lfemur -69.4574 13.6971 -21.0944
ltibia 66.5104
lfoot -13.2111 -5.20482
ltoes 9.2531
89
root 12.0039 16.1876 17.1736 -161.295 -5.50476 -173.233
lowerback 27.5141 3.67008 -9.39396
upperback 13.0074 -1.40849 -4.14456
thorax -0.6365 -2.37403 1.18426
lowerneck -7.97592 -3.36076 -7.48669
upperneck 24.6433 -7.61526 10.0121
head 9.7242 -3.65618 3.87263
rclavicle 7.31528e-014 1.1291e-013
rhumerus -3.83381 -33.7713 -54.4223
rradius 86.1274
rwrist -11.6403
rhand -39.4809 26.5879
rfingers 7.12502
rthumb -12.4674 -3.0202
lclavicle 7.31528e-014 1.1291e-013
lhumerus 16.7947 -26.3367 42.4824
lradius 86.3294
lwrist -10.3856
lhand 0.425212 31.1601
lfingers 7.12502
lthumb 25.9976 59.4017
rfemur -33.3146 4.2835 10.4963
rtibia 82.0896
rfoot -4.41416 4.22261
rtoes -4.51489
lfemur -69.9343 13.6335 -20.9312
ltibia 67.3152
lfoot -13.8059 -5.26561
ltoes 8.58053
90
root 12.0115 16.1279 17.168 -161.48 -5.39028 -173.512
lowerback 27.8749 3.77976 -9.64152
upperback 13.0633 -1.45629 -4.28737
thorax -0.733492 -2.42733 1.18226
lowerneck -8.26846 -3.41356 -7.35497
upperneck 24.8356 -7.65293 9.78131
head 9.8399 -3.66975 3.76101
rclavicle 3.18055e-015 9.54166e-015
rhumerus -4.15516 -33.9345 -54.2206
rradius 86.5577
rwrist -11.5482
rhand -39.5982 26.7451
rfingers 7.12502
rthumb -12.5804 -2.85609
lclavicle 3.18055e-015 9.54166e-015
lhumerus 16.9184 -26.3631 41.8445
lradius 87.3482
lwrist -10.4965
lhand 0.61177 30.7576
lfingers 7.12502
lthumb 26.1762 58.9728
rfemur -32.846 4.32853 10.1663
rtibia 82.1955
rfoot -4.23117 5.14226
rtoes -11.2971
lfemur -70.0829 13.6144 -21.1647
ltibia 68.0882
lfoot -13.9896 -5.23521
ltoes 6.83264
91
root 12.018 16.064 17.1656 -161.481 -5.46887 -174.02
lowerback 28.1069 3.73291 -9.93231
upperback 13.0068 -1.65758 -4.48086
thorax -0.884461 -2.53114 1.19394
lowerneck -7.98039 -3.4326 -7.36308
upperneck 24.5535 -7.61426 9.69807
head 9.67672 -3.66619 3.73888
rclavicle 2.8625e-014 7.15625e-014
rhumerus -4.6232 -33.8882 -53.8242
rradius 86.9485
rwrist -11.3979
rhand -40.0837 26.5146
rfingers 7.12502
rthumb -13.0485 -3.05721
lclavicle 2.8625e-014 7.15625e-014
lhumerus 16.7777 -26.6194 41.1506
lradius 88.4997
lwrist -10.6077
lhand 0.466369 30.919
lfingers 7.12502
lthumb 26.037 59.1548
rfemur -32.48 4.02695 9.67133
rtibia 82.2616
rfoot -4.10173 6.25061
rtoes -13.8405
lfemur -70.4506 13.339 -21.6482
ltibia 68.8673
lfoot -14.4434 -5.44494
ltoes 8.19237
